<svg width="27" height="27" viewBox="0 0 27 27" fill="none" xmlns="http://www.w3.org/2000/svg">
<path d="M13.4474 11.5873V14.9234H18.1664C17.4775 16.8651 15.6225 18.2596 13.4474 18.2596C10.6883 18.2596 8.4431 16.0144 8.4431 13.2553C8.4431 10.4963 10.6883 8.25109 13.4474 8.25109C14.6434 8.25109 15.7944 8.67979 16.6884 9.45878L18.8803 6.94331C17.379 5.63553 15.4507 4.91492 13.4474 4.91492C8.84845 4.91492 5.10693 8.65643 5.10693 13.2553C5.10693 17.8543 8.84845 21.5958 13.4474 21.5958C18.0463 21.5958 21.7878 17.8543 21.7878 13.2553V11.5873H13.4474Z" fill="black"/>
<mask id="mask0_6_228" style="mask-type:alpha" maskUnits="userSpaceOnUse" x="5" y="4" width="17" height="18">
<path d="M13.4474 11.5873V14.9234H18.1664C17.4775 16.8651 15.6225 18.2596 13.4474 18.2596C10.6883 18.2596 8.4431 16.0144 8.4431 13.2553C8.4431 10.4963 10.6883 8.25109 13.4474 8.25109C14.6434 8.25109 15.7944 8.67979 16.6884 9.45878L18.8803 6.94331C17.379 5.63553 15.4507 4.91492 13.4474 4.91492C8.84845 4.91492 5.10693 8.65643 5.10693 13.2553C5.10693 17.8543 8.84845 21.5958 13.4474 21.5958C18.0463 21.5958 21.7878 17.8543 21.7878 13.2553V11.5873H13.4474Z" fill="white"/>
</mask>
<g mask="url(#mask0_6_228)">
<rect x="0.34082" y="0.148926" width="26.2128" height="26.2128" fill="white"/>
</g>
</svg>
